<svg width="140" height="64" viewBox="0 0 140 64" fill="none" xmlns="http://www.w3.org/2000/svg">
<path d="M15.5605 39.6246C19.5363 32.9904 23.7297 26.4945 28.1406 20.1367C28.2791 19.9393 28.3681 19.7912 28.4076 19.6925C28.467 19.574 28.4867 19.495 28.467 19.4556C28.467 19.3963 28.4472 19.347 28.4076 19.3075C28.3681 19.268 28.3384 19.2087 28.3186 19.1298C28.2988 19.031 28.3087 18.883 28.3483 18.6855C28.8428 17.0665 29.7922 15.8028 31.1966 14.8946C31.4735 14.7169 31.7208 14.6971 31.9383 14.8353C32.1757 14.9538 32.3636 15.1315 32.5021 15.3684C32.6208 15.6054 32.5416 16.02 32.2647 16.6123C31.9878 17.2047 31.6416 17.8266 31.2263 18.4782C30.8307 19.1298 30.5043 19.6431 30.2472 20.0183C30.1483 20.1565 30.079 20.2651 30.0395 20.3441C28.8725 22.0618 27.7153 23.7697 26.5681 25.4678C23.4824 29.9498 20.4561 34.491 17.4891 39.0915C17.3506 39.2889 17.2319 39.4568 17.133 39.595C16.955 39.8517 16.8858 39.9899 16.9254 40.0096C16.9649 40.0491 17.1627 39.98 17.5188 39.8023C17.5979 39.7628 17.6869 39.7233 17.7858 39.6838C21.2671 38.1833 25.0055 36.4556 29.001 34.5009C32.9966 32.5462 36.8438 30.4236 40.5426 28.1333C44.2613 25.8429 47.4261 23.4341 50.037 20.9068C51.5205 19.4259 52.737 17.8266 53.6864 16.1089C54.6359 14.3713 55.1402 12.7128 55.1996 11.1332C55.2589 9.55367 54.6853 8.24065 53.4787 7.19419C52.2721 6.12799 50.2447 5.51591 47.3964 5.35795C43.6975 5.29872 39.0492 6.07863 33.4515 7.69768C27.8538 9.31673 22.4637 11.4195 17.2814 14.0061C12.099 16.5729 8.30129 19.2581 5.88814 22.0618C5.17606 22.8911 4.78046 23.7105 4.70134 24.52C4.642 25.3098 5.12661 26.0206 6.15516 26.6524C6.39252 26.7907 6.57054 26.8203 6.68922 26.7413C6.8079 26.6623 6.89691 26.5537 6.95625 26.4155C7.01559 26.3168 7.07493 26.2378 7.13427 26.1786C7.19361 26.0996 7.27273 26.07 7.37163 26.0897C7.47053 26.0897 7.5991 26.149 7.75734 26.2674C8.17272 26.6228 8.41008 27.0375 8.46942 27.5113C8.54854 27.9655 8.46942 28.3406 8.23206 28.6368C7.9947 28.9329 7.61888 29.0119 7.1046 28.8737C4.98815 28.1234 3.71234 27.0769 3.27718 25.7343C2.8618 24.3719 3.36619 22.8023 4.79035 21.0252C7.32218 18.1031 11.2287 15.3092 16.51 12.6437C21.811 9.97817 27.3197 7.81615 33.0361 6.1576C38.7723 4.47932 43.5789 3.67966 47.4557 3.75864C50.6996 3.9166 53.0436 4.61753 54.4875 5.86144C55.9512 7.0856 56.693 8.62567 56.7127 10.4817C56.7325 12.3179 56.2281 14.243 55.1996 16.2569C54.171 18.2709 52.7963 20.1466 51.0755 21.8841C48.2865 24.6089 44.9536 27.1855 41.0767 29.6141C37.1998 32.0427 33.1647 34.2541 28.9714 36.2483C24.778 38.2425 20.8121 39.9603 17.0737 41.4016C16.6188 41.5793 16.2726 41.7274 16.0353 41.8459C15.7979 41.9841 15.6001 42.1519 15.4419 42.3494C15.2836 42.5468 15.1056 42.8232 14.9078 43.1786C14.8287 43.2971 14.7496 43.4254 14.6704 43.5636C14.2748 44.2152 13.8693 44.8767 13.454 45.548C11.9507 47.8976 10.5661 50.2965 9.30018 52.7449C8.96392 53.3174 8.65733 53.5445 8.38041 53.426C8.10349 53.3076 8.0936 52.9423 8.35074 52.3302C9.8738 49.3488 11.4958 46.4167 13.2166 43.534C13.4342 43.1589 13.543 42.9318 13.543 42.8528C13.543 42.7739 13.3749 42.8035 13.0386 42.9417C9.06282 44.4028 5.01782 45.6269 0.903585 46.6142C0.547545 46.6734 0.290406 46.6438 0.132166 46.5253C-0.00629362 46.4266 -0.0359636 46.2884 0.0431563 46.1107C0.142056 45.933 0.359636 45.8046 0.695895 45.7257C2.79257 45.2123 4.87936 44.5904 6.95625 43.8598C9.05293 43.1293 11.1002 42.3691 13.0979 41.5793C13.3353 41.4806 13.543 41.4016 13.721 41.3424C14.0375 41.2239 14.2748 41.1252 14.4331 41.0462C14.6111 40.9672 14.7594 40.8389 14.8781 40.6612C14.9968 40.5032 15.1649 40.2564 15.3825 39.9208C15.4221 39.8221 15.4814 39.7233 15.5605 39.6246Z" fill="black"/>
<path d="M53.0633 24.6385C53.5974 24.678 53.8447 24.8458 53.8051 25.142C53.7655 25.4184 53.5677 25.7047 53.2117 26.0009C52.8754 26.2773 52.5095 26.4649 52.1139 26.5636C51.7381 26.6426 51.4612 26.5142 51.2831 26.1786C51.2436 26.0798 51.2535 25.991 51.3128 25.912C51.3919 25.8133 51.4908 25.7343 51.6095 25.6751C51.748 25.5961 51.8667 25.527 51.9656 25.4678C52.0447 25.448 52.104 25.4283 52.1436 25.4085C52.1831 25.3888 52.2029 25.369 52.2029 25.3493C52.2227 25.1321 52.3117 24.9544 52.4699 24.8162C52.6282 24.678 52.826 24.6188 53.0633 24.6385ZM46.4469 38.7065C45.6755 38.7065 45.2206 38.4597 45.0821 37.9661C44.9437 37.4724 45.0129 36.8505 45.2898 36.1002C45.547 35.3302 45.9129 34.5305 46.3876 33.7012C46.8623 32.8522 47.337 32.0822 47.8118 31.3911C48.2865 30.6803 48.6623 30.1374 48.9392 29.7622C49.0183 29.624 49.0876 29.5253 49.1469 29.466C49.0282 29.1501 49.137 28.8046 49.4733 28.4294C49.8095 28.0346 50.2051 27.7483 50.6601 27.5706C51.115 27.3731 51.4414 27.4027 51.6392 27.6594C51.7776 27.8766 51.8073 28.0839 51.7282 28.2814C51.6491 28.4788 51.5403 28.6664 51.4018 28.8441C51.3623 28.8836 51.3227 28.9329 51.2831 28.9922C50.5315 30.0584 49.7106 31.2529 48.8205 32.5758C47.9502 33.8789 47.2975 34.9748 46.8623 35.8633C46.5261 36.6333 46.7338 37.0578 47.4854 37.1368C48.2568 37.2158 49.2458 37.0973 50.4524 36.7814C51.6787 36.4655 52.7963 36.1298 53.8051 35.7744C54.8337 35.3993 55.4468 35.1525 55.6446 35.034C55.8622 34.9155 56.0303 34.8958 56.149 34.9748C56.2875 35.0537 56.3468 35.1821 56.327 35.3598C56.3073 35.5177 56.1688 35.6856 55.9117 35.8633C54.626 36.5741 52.9447 37.2256 50.8678 37.818C48.8107 38.4103 47.337 38.7065 46.4469 38.7065Z" fill="black"/>
<path d="M43.4206 55.6473C43.203 55.5486 43.114 55.3413 43.1536 55.0253C43.1734 54.7094 43.3909 54.1763 43.8063 53.426C44.2019 52.6757 44.8448 51.5799 45.7349 50.1386C46.6052 48.6972 47.7722 46.7919 49.2359 44.4225C50.8974 41.7768 53.0139 38.3807 55.5853 34.2343C56.2578 32.9707 57.6325 30.6013 59.7094 27.1263C61.7863 23.6315 64.1006 19.8603 66.6522 15.8127C69.2038 11.7453 71.5279 8.21104 73.6246 5.20987C75.7411 2.18895 77.185 0.500793 77.9564 0.145392C79.163 -0.21001 79.7564 0.086158 79.7366 1.0339C79.7366 1.96189 79.4004 3.16631 78.7279 4.64715C78.0751 6.10824 77.3729 7.49036 76.6213 8.7935C75.8894 10.0769 75.4048 10.9062 75.1675 11.2813C75.1477 11.3011 75.1378 11.3208 75.1378 11.3405C72.4279 15.7041 69.4313 20.0874 66.1478 24.4904C62.8841 28.8934 60.372 31.8453 58.6116 33.3458C58.2754 33.5828 58.0479 33.7309 57.9292 33.7901C57.8303 33.8493 57.7413 33.9086 57.6622 33.9678C57.6028 34.027 57.5237 34.1257 57.4248 34.264C57.3259 34.4022 57.1875 34.6194 57.0094 34.9155L45.2305 54.0776C45.2898 54.0776 45.2799 54.1763 45.2008 54.3738C45.1019 54.591 44.9635 54.818 44.7854 55.055C44.6074 55.3116 44.3997 55.4992 44.1624 55.6177C43.9052 55.7559 43.658 55.7658 43.4206 55.6473ZM60.3918 29.466C60.1149 29.9004 59.9764 30.1472 59.9764 30.2065C59.9962 30.2657 60.1841 30.0781 60.5402 29.6437C62.4984 27.1559 64.6841 24.1646 67.0972 20.6698C69.5104 17.1751 71.7356 13.7889 73.773 10.5113C76.2059 6.48339 77.6103 3.88698 77.9861 2.72205C78.3817 1.55713 77.8773 1.89278 76.4729 3.72903C74.4949 6.45377 72.5466 9.36609 70.628 12.466C68.7093 15.5659 66.8302 18.6855 64.9907 21.8249C63.428 24.4707 61.8951 27.0177 60.3918 29.466Z" fill="black"/>
<path d="M80.1817 29.4364C80.3795 29.3772 80.6267 29.3772 80.9234 29.4364C81.2201 29.4957 81.4575 29.6141 81.6355 29.7918C81.8135 29.9695 81.8333 30.1867 81.6948 30.4434C81.1806 31.6676 80.5773 32.8621 79.885 34.027C79.8059 34.1455 79.7366 34.264 79.6773 34.3824C79.2619 35.113 78.8564 35.8435 78.4608 36.5741C77.8081 37.7587 77.1158 38.9533 76.3839 40.1577C76.1466 40.5329 75.9883 40.8093 75.9092 40.987C75.8301 41.1844 75.8004 41.3325 75.8202 41.4312C75.84 41.53 75.8993 41.6385 75.9982 41.757C76.018 41.7768 76.0378 41.7965 76.0576 41.8162C76.1762 41.9742 76.2158 42.142 76.1762 42.3197C76.1565 42.4974 76.0773 42.6455 75.9389 42.764C75.2861 43.2379 74.7224 43.7117 74.2477 44.1856C73.773 44.6792 73.318 45.2617 72.8829 45.933C72.4081 46.7228 71.8049 47.7199 71.073 48.9243C69.4115 51.7083 67.5917 54.6107 65.6137 57.6316C63.6555 60.6723 62.1423 62.6369 61.0742 63.5254C60.3226 64.019 59.7391 64.1276 59.3237 63.8512C58.8885 63.5945 58.7501 63.0318 58.9083 62.163C59.2841 60.6624 59.9369 59.0927 60.8665 57.4539C61.7764 55.8151 62.716 54.3935 63.6852 53.1891C65.6632 50.6618 67.7994 48.2727 70.0939 46.0218C70.8653 45.2715 71.5279 44.5706 72.0818 43.919C72.6356 43.2872 73.1993 42.5172 73.773 41.6089L78.1345 34.6194C78.4905 34.0863 78.8169 33.5433 79.1136 32.9904C79.3311 32.5955 79.4201 32.3487 79.3806 32.25C79.3608 32.1316 79.2619 32.1217 79.0839 32.2204C78.9059 32.2994 78.6982 32.4277 78.4608 32.6054C78.2432 32.7831 78.0356 32.9608 77.8378 33.1385C77.7191 33.2372 77.6202 33.3162 77.541 33.3755C77.0268 33.7703 76.2158 34.4417 75.1081 35.3894C73.7433 36.5543 72.1906 37.8476 70.4499 39.2692C68.7093 40.6908 67.0774 41.8952 65.5544 42.8825C64.0313 43.8894 62.9237 44.3732 62.2314 44.3337C61.4006 44.3337 60.8962 44.0671 60.7182 43.534C60.5204 43.0207 60.4907 42.4185 60.6292 41.7274C61.0446 39.6542 62.1127 37.4231 63.8335 35.034C65.5544 32.6252 67.5719 30.5915 69.8862 28.9329C72.2005 27.2744 74.4653 26.5142 76.6806 26.6524C77.274 26.7314 77.6993 26.9486 77.9564 27.304C78.2136 27.6594 78.263 28.0247 78.1048 28.3998C77.9663 28.775 77.5806 29.0119 76.9476 29.1106C76.7499 29.1501 76.6114 29.1403 76.5323 29.081C76.4532 29.0218 76.3839 28.9428 76.3246 28.8441C76.285 28.7454 76.2158 28.6565 76.1169 28.5775C76.0378 28.4788 75.8993 28.4097 75.7015 28.3702C75.5235 28.3307 75.2466 28.3505 74.8708 28.4294C73.1301 28.7651 71.34 29.6734 69.5005 31.1542C67.661 32.6153 66.0489 34.3133 64.6643 36.2483C63.2797 38.1635 62.4193 39.9701 62.083 41.6682C61.9643 42.3592 62.0731 42.7245 62.4094 42.764C62.7456 42.8035 63.1808 42.6653 63.7149 42.3494C64.2291 42.0334 64.7137 41.6978 65.1687 41.3424C65.6236 40.987 65.9203 40.7402 66.0588 40.602C69.5203 37.6403 73.0609 34.7773 76.6806 32.0131C77.8279 31.1246 78.9949 30.2657 80.1817 29.4364ZM60.4808 62.3407C60.8369 62.2025 61.3413 61.6595 61.994 60.7118C62.6467 59.7838 63.3193 58.7373 64.0116 57.5724C64.6841 56.4075 65.2478 55.4104 65.7027 54.5811C65.9994 54.048 66.1972 53.7025 66.2961 53.5445C66.3357 53.4853 66.395 53.3964 66.4742 53.278C66.6324 53.041 66.8203 52.7449 67.0379 52.3895C67.2555 52.0538 67.4236 51.728 67.5423 51.4121C67.6807 51.1159 67.7005 50.9284 67.6016 50.8494C67.4236 50.7704 67.028 51.1061 66.4148 51.8563C65.8214 52.6264 65.1291 53.6037 64.3379 54.7884C63.5665 55.9731 62.8346 57.1479 62.1423 58.3128C61.45 59.4975 60.9358 60.4748 60.5995 61.2449C60.2633 62.0149 60.2237 62.3802 60.4808 62.3407Z" fill="black"/>
<path d="M85.2552 25.7047C84.7014 25.0334 84.3849 24.3818 84.3058 23.75C84.2662 22.8023 84.553 22.1309 85.1662 21.736C85.7794 21.3412 86.5113 21.4695 87.3618 22.1211C87.6783 22.4765 87.8761 22.9207 87.9552 23.4538C88.0541 23.9869 87.9651 24.599 87.6882 25.2901C87.5695 25.527 87.52 25.7146 87.5398 25.8528C87.5794 25.9713 87.7277 26.0897 87.9849 26.2082C89.5475 26.8992 90.6255 27.6989 91.2189 28.6071C91.8123 29.5154 91.5453 30.7099 90.4178 32.1908C89.8244 32.9608 89.2607 33.9086 88.7266 35.034C88.1926 36.1397 88.0244 37.117 88.2222 37.9661C88.4596 38.5189 89.0827 38.6472 90.0914 38.3511C91.12 38.0747 92.2475 37.5909 93.4738 36.8999C94.7002 36.2088 95.7584 35.5375 96.6485 34.8859C96.9254 34.649 97.143 34.5404 97.3012 34.5601C97.4595 34.5601 97.5386 34.6391 97.5386 34.7971C97.5584 34.955 97.4793 35.1228 97.3012 35.3005C94.6705 37.6107 92.3068 39.0027 90.2101 39.4765C88.1134 39.9504 86.8574 39.5061 86.442 38.1438C86.0267 36.7814 87.0157 34.5108 89.409 31.3319C90.0815 30.4039 90.1804 29.6536 89.7057 29.081C89.231 28.4887 88.509 27.926 87.5398 27.3929C87.5003 27.3731 87.4706 27.3534 87.4508 27.3336C87.253 27.1954 87.075 27.1461 86.9168 27.1855C86.7783 27.2053 86.5904 27.383 86.353 27.7186C86.1157 28.0346 85.9376 28.2616 85.819 28.3998C85.5025 28.7947 85.2256 29.0119 84.9882 29.0514C84.7508 29.0711 84.5728 28.9922 84.4542 28.8145C84.3553 28.6368 84.3256 28.4393 84.3651 28.2221C84.4245 28.0247 84.5234 27.9161 84.6618 27.8963C84.8003 27.8766 85.0871 27.6199 85.5223 27.1263C85.7201 26.8499 85.7695 26.6031 85.6706 26.3859C85.5915 26.149 85.453 25.9219 85.2552 25.7047ZM86.6794 24.5496C86.7585 24.056 86.7091 23.6217 86.531 23.2465C86.353 22.8714 86.1552 22.6838 85.9376 22.6838C85.7201 22.664 85.6212 22.9701 85.6409 23.6019C85.6607 23.7006 85.7201 23.8685 85.819 24.1054C85.9179 24.3226 86.0267 24.5299 86.1453 24.7273C86.2838 24.9248 86.4124 25.0235 86.531 25.0235C86.5706 25.0235 86.5904 25.0038 86.5904 24.9643C86.6102 24.905 86.6201 24.8458 86.6201 24.7866C86.6398 24.7076 86.6596 24.6286 86.6794 24.5496Z" fill="black"/>
<path d="M103.799 24.6385C104.333 24.678 104.58 24.8458 104.541 25.142C104.501 25.4184 104.303 25.7047 103.947 26.0009C103.611 26.2773 103.245 26.4649 102.85 26.5636C102.474 26.6426 102.197 26.5142 102.019 26.1786C101.979 26.0798 101.989 25.991 102.048 25.912C102.128 25.8133 102.226 25.7343 102.345 25.6751C102.484 25.5961 102.602 25.527 102.701 25.4678C102.78 25.448 102.84 25.4283 102.879 25.4085C102.919 25.3888 102.939 25.369 102.939 25.3493C102.958 25.1321 103.047 24.9544 103.206 24.8162C103.364 24.678 103.562 24.6188 103.799 24.6385ZM97.1826 38.7065C96.4111 38.7065 95.9562 38.4597 95.8177 37.9661C95.6793 37.4724 95.7485 36.8505 96.0254 36.1002C96.2826 35.3302 96.6485 34.5305 97.1232 33.7012C97.5979 32.8522 98.0727 32.0822 98.5474 31.3911C99.0221 30.6803 99.3979 30.1374 99.6748 29.7622C99.754 29.624 99.8232 29.5253 99.8825 29.466C99.7638 29.1501 99.8726 28.8046 100.209 28.4294C100.545 28.0346 100.941 27.7483 101.396 27.5706C101.851 27.3731 102.177 27.4027 102.375 27.6594C102.513 27.8766 102.543 28.0839 102.464 28.2814C102.385 28.4788 102.276 28.6664 102.137 28.8441C102.098 28.8836 102.058 28.9329 102.019 28.9922C101.267 30.0584 100.446 31.2529 99.5562 32.5758C98.6858 33.8789 98.0331 34.9748 97.5979 35.8633C97.2617 36.6333 97.4694 37.0578 98.221 37.1368C98.9924 37.2158 99.9814 37.0973 101.188 36.7814C102.414 36.4655 103.532 36.1298 104.541 35.7744C105.569 35.3993 106.182 35.1525 106.38 35.034C106.598 34.9155 106.766 34.8958 106.885 34.9748C107.023 35.0537 107.082 35.1821 107.063 35.3598C107.043 35.5177 106.904 35.6856 106.647 35.8633C105.362 36.5741 103.68 37.2256 101.603 37.818C99.5463 38.4103 98.0727 38.7065 97.1826 38.7065Z" fill="black"/>
<path d="M117.358 36.9295C117.516 36.9492 117.803 36.7616 118.219 36.3668C118.654 35.9521 119.158 35.4388 119.732 34.8267C120.681 33.8 121.66 32.8325 122.669 31.9242C123.698 31.016 124.558 30.552 125.25 30.5322C125.903 30.631 126.269 31.0061 126.348 31.6577C126.447 32.2895 126.457 32.9904 126.378 33.7605C126.318 34.2541 126.289 34.7082 126.289 35.1228C126.309 35.5177 126.407 35.804 126.585 35.9817C126.922 36.3174 128.207 35.8238 130.443 34.5009C130.719 34.3429 130.937 34.2936 131.095 34.3528C131.273 34.412 131.343 34.5305 131.303 34.7082C131.283 34.8859 131.105 35.0735 130.769 35.2709C129.305 36.1792 128.178 36.7616 127.387 37.0183C126.595 37.2553 125.982 37.1763 125.547 36.7814C124.815 36.0706 124.548 34.8168 124.746 33.0201C124.766 32.6054 124.716 32.408 124.598 32.4277C124.499 32.4277 124.271 32.5758 123.915 32.872C123.876 32.9115 123.836 32.9411 123.796 32.9608C123.203 33.4544 122.531 34.0665 121.779 34.7971C120.849 35.7053 119.949 36.505 119.079 37.196C118.228 37.8673 117.546 38.124 117.032 37.9661C116.339 37.6699 115.983 37.1072 115.964 36.2779C115.944 35.4486 116.092 34.5503 116.409 33.5828C116.745 32.5955 117.081 31.7169 117.417 30.9469C117.576 30.552 117.704 30.2262 117.803 29.9695C117.942 29.4759 117.704 29.4167 117.091 29.7918C116.478 30.167 115.677 30.7692 114.688 31.5984C113.699 32.408 112.71 33.257 111.721 34.1455C110.752 35.0143 109.97 35.7152 109.377 36.2483C109.041 36.5445 108.833 36.7419 108.754 36.8406C108.655 36.9196 108.507 37.0381 108.309 37.196C107.933 37.5514 107.458 37.9661 106.885 38.4399C106.311 38.9335 105.757 39.3482 105.223 39.6838C104.689 40.0195 104.284 40.138 104.007 40.0392C103.413 39.7233 103.344 39.1014 103.799 38.1734C104.986 35.7645 106.351 33.5137 107.893 31.4207C108.685 30.2953 109.446 29.16 110.178 28.0148C110.198 27.9753 110.208 27.9457 110.208 27.926C110.208 27.9062 110.188 27.8766 110.148 27.8371C110.148 27.8371 110.138 27.8272 110.119 27.8075C109.98 27.6693 109.931 27.5212 109.97 27.3632C110.01 27.2053 110.109 27.0375 110.267 26.8598C110.366 26.761 110.544 26.6228 110.801 26.4451C111.078 26.2674 111.355 26.149 111.632 26.0897C111.909 26.0107 112.107 26.07 112.225 26.2674C112.344 26.4649 112.294 26.8795 112.077 27.5113C110.851 29.703 109.456 31.9144 107.893 34.1455C107.537 34.6786 107.191 35.2018 106.855 35.7152C106.38 36.426 106.202 36.7616 106.321 36.7222C106.44 36.6827 106.756 36.4359 107.27 35.9817C107.409 35.8633 107.547 35.7448 107.686 35.6263C109.011 34.4614 110.396 33.2866 111.84 32.1019C113.303 30.8975 114.638 29.9202 115.845 29.1699C117.052 28.3998 117.952 28.0938 118.545 28.2517C119.356 28.6269 119.504 29.5746 118.99 31.095C118.95 31.1937 118.881 31.3714 118.782 31.6281C118.604 32.1612 118.367 32.8325 118.07 33.642C117.793 34.4515 117.566 35.192 117.388 35.8633C117.23 36.5148 117.22 36.8702 117.358 36.9295Z" fill="black"/>
<path d="M138.809 36.6819C138.493 36.7609 138.246 36.7016 138.068 36.5042C137.909 36.3265 137.82 36.0895 137.801 35.7934C137.781 35.5169 137.82 35.2603 137.919 35.0233C138.157 34.6087 138.483 34.4211 138.898 34.4606C139.334 34.5199 139.67 34.737 139.907 35.1122C140.006 35.3096 140.026 35.5071 139.967 35.7045C139.907 35.902 139.789 36.0599 139.611 36.1784C139.452 36.2574 139.304 36.3561 139.166 36.4746C139.007 36.5733 138.889 36.6424 138.809 36.6819Z" fill="black"/>
</svg>
