<svg width="142" height="66" viewBox="0 0 142 66" fill="none" xmlns="http://www.w3.org/2000/svg">
<path d="M16.5605 40.6246C20.5363 33.9904 24.7297 27.4945 29.1406 21.1367C29.2791 20.9393 29.3681 20.7912 29.4076 20.6925C29.467 20.574 29.4867 20.495 29.467 20.4556C29.467 20.3963 29.4472 20.347 29.4076 20.3075C29.3681 20.268 29.3384 20.2087 29.3186 20.1298C29.2988 20.031 29.3087 19.883 29.3483 19.6855C29.8428 18.0665 30.7922 16.8028 32.1966 15.8946C32.4735 15.7169 32.7208 15.6971 32.9383 15.8353C33.1757 15.9538 33.3636 16.1315 33.5021 16.3684C33.6208 16.6054 33.5416 17.02 33.2647 17.6123C32.9878 18.2047 32.6416 18.8266 32.2263 19.4782C31.8307 20.1298 31.5043 20.6431 31.2472 21.0183C31.1483 21.1565 31.079 21.2651 31.0395 21.3441C29.8725 23.0618 28.7153 24.7697 27.5681 26.4678C24.4824 30.9498 21.4561 35.491 18.4891 40.0915C18.3506 40.2889 18.2319 40.4568 18.133 40.595C17.955 40.8517 17.8858 40.9899 17.9254 41.0096C17.9649 41.0491 18.1627 40.98 18.5188 40.8023C18.5979 40.7628 18.6869 40.7233 18.7858 40.6838C22.2671 39.1833 26.0055 37.4556 30.001 35.5009C33.9966 33.5462 37.8438 31.4236 41.5426 29.1333C45.2613 26.8429 48.4261 24.4341 51.037 21.9068C52.5205 20.4259 53.737 18.8266 54.6864 17.1089C55.6359 15.3713 56.1402 13.7128 56.1996 12.1332C56.2589 10.5537 55.6853 9.24065 54.4787 8.19419C53.2721 7.12799 51.2447 6.51591 48.3964 6.35795C44.6975 6.29872 40.0492 7.07863 34.4515 8.69768C28.8538 10.3167 23.4637 12.4195 18.2814 15.0061C13.099 17.5729 9.30129 20.2581 6.88814 23.0618C6.17606 23.8911 5.78046 24.7105 5.70134 25.52C5.642 26.3098 6.12661 27.0206 7.15516 27.6524C7.39252 27.7907 7.57054 27.8203 7.68922 27.7413C7.8079 27.6623 7.89691 27.5537 7.95625 27.4155C8.01559 27.3168 8.07493 27.2378 8.13427 27.1786C8.19361 27.0996 8.27273 27.07 8.37163 27.0897C8.47053 27.0897 8.5991 27.149 8.75734 27.2674C9.17272 27.6228 9.41008 28.0375 9.46942 28.5113C9.54854 28.9655 9.46942 29.3406 9.23206 29.6368C8.9947 29.9329 8.61888 30.0119 8.1046 29.8737C5.98815 29.1234 4.71234 28.0769 4.27718 26.7343C3.8618 25.3719 4.36619 23.8023 5.79035 22.0252C8.32218 19.1031 12.2287 16.3092 17.51 13.6437C22.811 10.9782 28.3197 8.81615 34.0361 7.1576C39.7723 5.47932 44.5789 4.67966 48.4557 4.75864C51.6996 4.9166 54.0436 5.61753 55.4875 6.86144C56.9512 8.0856 57.693 9.62567 57.7127 11.4817C57.7325 13.3179 57.2281 15.243 56.1996 17.2569C55.171 19.2709 53.7963 21.1466 52.0755 22.8841C49.2865 25.6089 45.9536 28.1855 42.0767 30.6141C38.1998 33.0427 34.1647 35.2541 29.9714 37.2483C25.778 39.2425 21.8121 40.9603 18.0737 42.4016C17.6188 42.5793 17.2726 42.7274 17.0353 42.8459C16.7979 42.9841 16.6001 43.1519 16.4419 43.3494C16.2836 43.5468 16.1056 43.8232 15.9078 44.1786C15.8287 44.2971 15.7496 44.4254 15.6704 44.5636C15.2748 45.2152 14.8693 45.8767 14.454 46.548C12.9507 48.8976 11.5661 51.2965 10.3002 53.7449C9.96392 54.3174 9.65733 54.5445 9.38041 54.426C9.10349 54.3076 9.0936 53.9423 9.35074 53.3302C10.8738 50.3488 12.4958 47.4167 14.2166 44.534C14.4342 44.1589 14.543 43.9318 14.543 43.8528C14.543 43.7739 14.3749 43.8035 14.0386 43.9417C10.0628 45.4028 6.01782 46.6269 1.90358 47.6142C1.54755 47.6734 1.29041 47.6438 1.13217 47.5253C0.993706 47.4266 0.964036 47.2884 1.04316 47.1107C1.14206 46.933 1.35964 46.8046 1.6959 46.7257C3.79257 46.2123 5.87936 45.5904 7.95625 44.8598C10.0529 44.1293 12.1002 43.3691 14.0979 42.5793C14.3353 42.4806 14.543 42.4016 14.721 42.3424C15.0375 42.2239 15.2748 42.1252 15.4331 42.0462C15.6111 41.9672 15.7594 41.8389 15.8781 41.6612C15.9968 41.5032 16.1649 41.2564 16.3825 40.9208C16.4221 40.8221 16.4814 40.7233 16.5605 40.6246Z" fill="#F7F6F2"/>
<path d="M54.0633 25.6385C54.5974 25.678 54.8447 25.8458 54.8051 26.142C54.7655 26.4184 54.5677 26.7047 54.2117 27.0009C53.8754 27.2773 53.5095 27.4649 53.1139 27.5636C52.7381 27.6426 52.4612 27.5142 52.2831 27.1786C52.2436 27.0798 52.2535 26.991 52.3128 26.912C52.3919 26.8133 52.4908 26.7343 52.6095 26.6751C52.748 26.5961 52.8667 26.527 52.9656 26.4678C53.0447 26.448 53.104 26.4283 53.1436 26.4085C53.1831 26.3888 53.2029 26.369 53.2029 26.3493C53.2227 26.1321 53.3117 25.9544 53.4699 25.8162C53.6282 25.678 53.826 25.6188 54.0633 25.6385ZM47.4469 39.7065C46.6755 39.7065 46.2206 39.4597 46.0821 38.9661C45.9437 38.4724 46.0129 37.8505 46.2898 37.1002C46.547 36.3302 46.9129 35.5305 47.3876 34.7012C47.8623 33.8522 48.337 33.0822 48.8118 32.3911C49.2865 31.6803 49.6623 31.1374 49.9392 30.7622C50.0183 30.624 50.0876 30.5253 50.1469 30.466C50.0282 30.1501 50.137 29.8046 50.4733 29.4294C50.8095 29.0346 51.2051 28.7483 51.6601 28.5706C52.115 28.3731 52.4414 28.4027 52.6392 28.6594C52.7776 28.8766 52.8073 29.0839 52.7282 29.2814C52.6491 29.4788 52.5403 29.6664 52.4018 29.8441C52.3623 29.8836 52.3227 29.9329 52.2831 29.9922C51.5315 31.0584 50.7106 32.2529 49.8205 33.5758C48.9502 34.8789 48.2975 35.9748 47.8623 36.8633C47.5261 37.6333 47.7338 38.0578 48.4854 38.1368C49.2568 38.2158 50.2458 38.0973 51.4524 37.7814C52.6787 37.4655 53.7963 37.1298 54.8051 36.7744C55.8337 36.3993 56.4468 36.1525 56.6446 36.034C56.8622 35.9155 57.0303 35.8958 57.149 35.9748C57.2875 36.0537 57.3468 36.1821 57.327 36.3598C57.3073 36.5177 57.1688 36.6856 56.9117 36.8633C55.626 37.5741 53.9447 38.2256 51.8678 38.818C49.8107 39.4103 48.337 39.7065 47.4469 39.7065Z" fill="#F7F6F2"/>
<path d="M44.4206 56.6473C44.203 56.5486 44.114 56.3413 44.1536 56.0253C44.1734 55.7094 44.3909 55.1763 44.8063 54.426C45.2019 53.6757 45.8448 52.5799 46.7349 51.1386C47.6052 49.6972 48.7722 47.7919 50.2359 45.4225C51.8974 42.7768 54.0139 39.3807 56.5853 35.2343C57.2578 33.9707 58.6325 31.6013 60.7094 28.1263C62.7863 24.6315 65.1006 20.8603 67.6522 16.8127C70.2038 12.7453 72.5279 9.21104 74.6246 6.20987C76.7411 3.18895 78.185 1.50079 78.9564 1.14539C80.163 0.78999 80.7564 1.08616 80.7366 2.0339C80.7366 2.96189 80.4004 4.16631 79.7279 5.64715C79.0751 7.10824 78.3729 8.49036 77.6213 9.7935C76.8894 11.0769 76.4048 11.9062 76.1675 12.2813C76.1477 12.3011 76.1378 12.3208 76.1378 12.3405C73.4279 16.7041 70.4313 21.0874 67.1478 25.4904C63.8841 29.8934 61.372 32.8453 59.6116 34.3458C59.2754 34.5828 59.0479 34.7309 58.9292 34.7901C58.8303 34.8493 58.7413 34.9086 58.6622 34.9678C58.6028 35.027 58.5237 35.1257 58.4248 35.264C58.3259 35.4022 58.1875 35.6194 58.0094 35.9155L46.2305 55.0776C46.2898 55.0776 46.2799 55.1763 46.2008 55.3738C46.1019 55.591 45.9635 55.818 45.7854 56.055C45.6074 56.3116 45.3997 56.4992 45.1624 56.6177C44.9052 56.7559 44.658 56.7658 44.4206 56.6473ZM61.3918 30.466C61.1149 30.9004 60.9764 31.1472 60.9764 31.2065C60.9962 31.2657 61.1841 31.0781 61.5402 30.6437C63.4984 28.1559 65.6841 25.1646 68.0972 21.6698C70.5104 18.1751 72.7356 14.7889 74.773 11.5113C77.2059 7.48339 78.6103 4.88698 78.9861 3.72205C79.3817 2.55713 78.8773 2.89278 77.4729 4.72903C75.4949 7.45377 73.5466 10.3661 71.628 13.466C69.7093 16.5659 67.8302 19.6855 65.9907 22.8249C64.428 25.4707 62.8951 28.0177 61.3918 30.466Z" fill="#F7F6F2"/>
<path d="M81.1817 30.4364C81.3795 30.3772 81.6267 30.3772 81.9234 30.4364C82.2201 30.4957 82.4575 30.6141 82.6355 30.7918C82.8135 30.9695 82.8333 31.1867 82.6948 31.4434C82.1806 32.6676 81.5773 33.8621 80.885 35.027C80.8059 35.1455 80.7366 35.264 80.6773 35.3824C80.2619 36.113 79.8564 36.8435 79.4608 37.5741C78.8081 38.7587 78.1158 39.9533 77.3839 41.1577C77.1466 41.5329 76.9883 41.8093 76.9092 41.987C76.8301 42.1844 76.8004 42.3325 76.8202 42.4312C76.84 42.53 76.8993 42.6385 76.9982 42.757C77.018 42.7768 77.0378 42.7965 77.0576 42.8162C77.1762 42.9742 77.2158 43.142 77.1762 43.3197C77.1565 43.4974 77.0773 43.6455 76.9389 43.764C76.2861 44.2379 75.7224 44.7117 75.2477 45.1856C74.773 45.6792 74.318 46.2617 73.8829 46.933C73.4081 47.7228 72.8049 48.7199 72.073 49.9243C70.4115 52.7083 68.5917 55.6107 66.6137 58.6316C64.6555 61.6723 63.1423 63.6369 62.0742 64.5254C61.3226 65.019 60.7391 65.1276 60.3237 64.8512C59.8885 64.5945 59.7501 64.0318 59.9083 63.163C60.2841 61.6624 60.9369 60.0927 61.8665 58.4539C62.7764 56.8151 63.716 55.3935 64.6852 54.1891C66.6632 51.6618 68.7994 49.2727 71.0939 47.0218C71.8653 46.2715 72.5279 45.5706 73.0818 44.919C73.6356 44.2872 74.1993 43.5172 74.773 42.6089L79.1345 35.6194C79.4905 35.0863 79.8169 34.5433 80.1136 33.9904C80.3311 33.5955 80.4201 33.3487 80.3806 33.25C80.3608 33.1316 80.2619 33.1217 80.0839 33.2204C79.9059 33.2994 79.6982 33.4277 79.4608 33.6054C79.2432 33.7831 79.0356 33.9608 78.8378 34.1385C78.7191 34.2372 78.6202 34.3162 78.541 34.3755C78.0268 34.7703 77.2158 35.4417 76.1081 36.3894C74.7433 37.5543 73.1906 38.8476 71.4499 40.2692C69.7093 41.6908 68.0774 42.8952 66.5544 43.8825C65.0313 44.8894 63.9237 45.3732 63.2314 45.3337C62.4006 45.3337 61.8962 45.0671 61.7182 44.534C61.5204 44.0207 61.4907 43.4185 61.6292 42.7274C62.0446 40.6542 63.1127 38.4231 64.8335 36.034C66.5544 33.6252 68.5719 31.5915 70.8862 29.9329C73.2005 28.2744 75.4653 27.5142 77.6806 27.6524C78.274 27.7314 78.6993 27.9486 78.9564 28.304C79.2136 28.6594 79.263 29.0247 79.1048 29.3998C78.9663 29.775 78.5806 30.0119 77.9476 30.1106C77.7499 30.1501 77.6114 30.1403 77.5323 30.081C77.4532 30.0218 77.3839 29.9428 77.3246 29.8441C77.285 29.7454 77.2158 29.6565 77.1169 29.5775C77.0378 29.4788 76.8993 29.4097 76.7015 29.3702C76.5235 29.3307 76.2466 29.3505 75.8708 29.4294C74.1301 29.7651 72.34 30.6734 70.5005 32.1542C68.661 33.6153 67.0489 35.3133 65.6643 37.2483C64.2797 39.1635 63.4193 40.9701 63.083 42.6682C62.9643 43.3592 63.0731 43.7245 63.4094 43.764C63.7456 43.8035 64.1808 43.6653 64.7149 43.3494C65.2291 43.0334 65.7137 42.6978 66.1687 42.3424C66.6236 41.987 66.9203 41.7402 67.0588 41.602C70.5203 38.6403 74.0609 35.7773 77.6806 33.0131C78.8279 32.1246 79.9949 31.2657 81.1817 30.4364ZM61.4808 63.3407C61.8369 63.2025 62.3413 62.6595 62.994 61.7118C63.6467 60.7838 64.3193 59.7373 65.0116 58.5724C65.6841 57.4075 66.2478 56.4104 66.7027 55.5811C66.9994 55.048 67.1972 54.7025 67.2961 54.5445C67.3357 54.4853 67.395 54.3964 67.4742 54.278C67.6324 54.041 67.8203 53.7449 68.0379 53.3895C68.2555 53.0538 68.4236 52.728 68.5423 52.4121C68.6807 52.1159 68.7005 51.9284 68.6016 51.8494C68.4236 51.7704 68.028 52.1061 67.4148 52.8563C66.8214 53.6264 66.1291 54.6037 65.3379 55.7884C64.5665 56.9731 63.8346 58.1479 63.1423 59.3128C62.45 60.4975 61.9358 61.4748 61.5995 62.2449C61.2633 63.0149 61.2237 63.3802 61.4808 63.3407Z" fill="#F7F6F2"/>
<path d="M86.2552 26.7047C85.7014 26.0334 85.3849 25.3818 85.3058 24.75C85.2662 23.8023 85.553 23.1309 86.1662 22.736C86.7794 22.3412 87.5113 22.4695 88.3618 23.1211C88.6783 23.4765 88.8761 23.9207 88.9552 24.4538C89.0541 24.9869 88.9651 25.599 88.6882 26.2901C88.5695 26.527 88.52 26.7146 88.5398 26.8528C88.5794 26.9713 88.7277 27.0897 88.9849 27.2082C90.5475 27.8992 91.6255 28.6989 92.2189 29.6071C92.8123 30.5154 92.5453 31.7099 91.4178 33.1908C90.8244 33.9608 90.2607 34.9086 89.7266 36.034C89.1926 37.1397 89.0244 38.117 89.2222 38.9661C89.4596 39.5189 90.0827 39.6472 91.0914 39.3511C92.12 39.0747 93.2475 38.5909 94.4738 37.8999C95.7002 37.2088 96.7584 36.5375 97.6485 35.8859C97.9254 35.649 98.143 35.5404 98.3012 35.5601C98.4595 35.5601 98.5386 35.6391 98.5386 35.7971C98.5584 35.955 98.4793 36.1228 98.3012 36.3005C95.6705 38.6107 93.3068 40.0027 91.2101 40.4765C89.1134 40.9504 87.8574 40.5061 87.442 39.1438C87.0267 37.7814 88.0157 35.5108 90.409 32.3319C91.0815 31.4039 91.1804 30.6536 90.7057 30.081C90.231 29.4887 89.509 28.926 88.5398 28.3929C88.5003 28.3731 88.4706 28.3534 88.4508 28.3336C88.253 28.1954 88.075 28.1461 87.9168 28.1855C87.7783 28.2053 87.5904 28.383 87.353 28.7186C87.1157 29.0346 86.9376 29.2616 86.819 29.3998C86.5025 29.7947 86.2256 30.0119 85.9882 30.0514C85.7508 30.0711 85.5728 29.9922 85.4542 29.8145C85.3553 29.6368 85.3256 29.4393 85.3651 29.2221C85.4245 29.0247 85.5234 28.9161 85.6618 28.8963C85.8003 28.8766 86.0871 28.6199 86.5223 28.1263C86.7201 27.8499 86.7695 27.6031 86.6706 27.3859C86.5915 27.149 86.453 26.9219 86.2552 26.7047ZM87.6794 25.5496C87.7585 25.056 87.7091 24.6217 87.531 24.2465C87.353 23.8714 87.1552 23.6838 86.9376 23.6838C86.7201 23.664 86.6212 23.9701 86.6409 24.6019C86.6607 24.7006 86.7201 24.8685 86.819 25.1054C86.9179 25.3226 87.0267 25.5299 87.1453 25.7273C87.2838 25.9248 87.4124 26.0235 87.531 26.0235C87.5706 26.0235 87.5904 26.0038 87.5904 25.9643C87.6102 25.905 87.6201 25.8458 87.6201 25.7866C87.6398 25.7076 87.6596 25.6286 87.6794 25.5496Z" fill="#F7F6F2"/>
<path d="M104.799 25.6385C105.333 25.678 105.58 25.8458 105.541 26.142C105.501 26.4184 105.303 26.7047 104.947 27.0009C104.611 27.2773 104.245 27.4649 103.85 27.5636C103.474 27.6426 103.197 27.5142 103.019 27.1786C102.979 27.0798 102.989 26.991 103.048 26.912C103.128 26.8133 103.226 26.7343 103.345 26.6751C103.484 26.5961 103.602 26.527 103.701 26.4678C103.78 26.448 103.84 26.4283 103.879 26.4085C103.919 26.3888 103.939 26.369 103.939 26.3493C103.958 26.1321 104.047 25.9544 104.206 25.8162C104.364 25.678 104.562 25.6188 104.799 25.6385ZM98.1826 39.7065C97.4111 39.7065 96.9562 39.4597 96.8177 38.9661C96.6793 38.4724 96.7485 37.8505 97.0254 37.1002C97.2826 36.3302 97.6485 35.5305 98.1232 34.7012C98.5979 33.8522 99.0727 33.0822 99.5474 32.3911C100.022 31.6803 100.398 31.1374 100.675 30.7622C100.754 30.624 100.823 30.5253 100.883 30.466C100.764 30.1501 100.873 29.8046 101.209 29.4294C101.545 29.0346 101.941 28.7483 102.396 28.5706C102.851 28.3731 103.177 28.4027 103.375 28.6594C103.513 28.8766 103.543 29.0839 103.464 29.2814C103.385 29.4788 103.276 29.6664 103.137 29.8441C103.098 29.8836 103.058 29.9329 103.019 29.9922C102.267 31.0584 101.446 32.2529 100.556 33.5758C99.6858 34.8789 99.0331 35.9748 98.5979 36.8633C98.2617 37.6333 98.4694 38.0578 99.221 38.1368C99.9924 38.2158 100.981 38.0973 102.188 37.7814C103.414 37.4655 104.532 37.1298 105.541 36.7744C106.569 36.3993 107.182 36.1525 107.38 36.034C107.598 35.9155 107.766 35.8958 107.885 35.9748C108.023 36.0537 108.082 36.1821 108.063 36.3598C108.043 36.5177 107.904 36.6856 107.647 36.8633C106.362 37.5741 104.68 38.2256 102.603 38.818C100.546 39.4103 99.0727 39.7065 98.1826 39.7065Z" fill="#F7F6F2"/>
<path d="M118.358 37.9295C118.516 37.9492 118.803 37.7616 119.219 37.3668C119.654 36.9521 120.158 36.4388 120.732 35.8267C121.681 34.8 122.66 33.8325 123.669 32.9242C124.698 32.016 125.558 31.552 126.25 31.5322C126.903 31.631 127.269 32.0061 127.348 32.6577C127.447 33.2895 127.457 33.9904 127.378 34.7605C127.318 35.2541 127.289 35.7082 127.289 36.1228C127.309 36.5177 127.407 36.804 127.585 36.9817C127.922 37.3174 129.207 36.8238 131.443 35.5009C131.719 35.3429 131.937 35.2936 132.095 35.3528C132.273 35.412 132.343 35.5305 132.303 35.7082C132.283 35.8859 132.105 36.0735 131.769 36.2709C130.305 37.1792 129.178 37.7616 128.387 38.0183C127.595 38.2553 126.982 38.1763 126.547 37.7814C125.815 37.0706 125.548 35.8168 125.746 34.0201C125.766 33.6054 125.716 33.408 125.598 33.4277C125.499 33.4277 125.271 33.5758 124.915 33.872C124.876 33.9115 124.836 33.9411 124.796 33.9608C124.203 34.4544 123.531 35.0665 122.779 35.7971C121.849 36.7053 120.949 37.505 120.079 38.196C119.228 38.8673 118.546 39.124 118.032 38.9661C117.339 38.6699 116.983 38.1072 116.964 37.2779C116.944 36.4486 117.092 35.5503 117.409 34.5828C117.745 33.5955 118.081 32.7169 118.417 31.9469C118.576 31.552 118.704 31.2262 118.803 30.9695C118.942 30.4759 118.704 30.4167 118.091 30.7918C117.478 31.167 116.677 31.7692 115.688 32.5984C114.699 33.408 113.71 34.257 112.721 35.1455C111.752 36.0143 110.97 36.7152 110.377 37.2483C110.041 37.5445 109.833 37.7419 109.754 37.8406C109.655 37.9196 109.507 38.0381 109.309 38.196C108.933 38.5514 108.458 38.9661 107.885 39.4399C107.311 39.9335 106.757 40.3482 106.223 40.6838C105.689 41.0195 105.284 41.138 105.007 41.0392C104.413 40.7233 104.344 40.1014 104.799 39.1734C105.986 36.7645 107.351 34.5137 108.893 32.4207C109.685 31.2953 110.446 30.16 111.178 29.0148C111.198 28.9753 111.208 28.9457 111.208 28.926C111.208 28.9062 111.188 28.8766 111.148 28.8371C111.148 28.8371 111.138 28.8272 111.119 28.8075C110.98 28.6693 110.931 28.5212 110.97 28.3632C111.01 28.2053 111.109 28.0375 111.267 27.8598C111.366 27.761 111.544 27.6228 111.801 27.4451C112.078 27.2674 112.355 27.149 112.632 27.0897C112.909 27.0107 113.107 27.07 113.225 27.2674C113.344 27.4649 113.294 27.8795 113.077 28.5113C111.851 30.703 110.456 32.9144 108.893 35.1455C108.537 35.6786 108.191 36.2018 107.855 36.7152C107.38 37.426 107.202 37.7616 107.321 37.7222C107.44 37.6827 107.756 37.4359 108.27 36.9817C108.409 36.8633 108.547 36.7448 108.686 36.6263C110.011 35.4614 111.396 34.2866 112.84 33.1019C114.303 31.8975 115.638 30.9202 116.845 30.1699C118.052 29.3998 118.952 29.0938 119.545 29.2517C120.356 29.6269 120.504 30.5746 119.99 32.095C119.95 32.1937 119.881 32.3714 119.782 32.6281C119.604 33.1612 119.367 33.8325 119.07 34.642C118.793 35.4515 118.566 36.192 118.388 36.8633C118.23 37.5148 118.22 37.8702 118.358 37.9295Z" fill="#F7F6F2"/>
<path d="M139.809 37.6819C139.493 37.7609 139.246 37.7016 139.068 37.5042C138.909 37.3265 138.82 37.0895 138.801 36.7934C138.781 36.5169 138.82 36.2603 138.919 36.0233C139.157 35.6087 139.483 35.4211 139.898 35.4606C140.334 35.5199 140.67 35.737 140.907 36.1122C141.006 36.3096 141.026 36.5071 140.967 36.7045C140.907 36.902 140.789 37.0599 140.611 37.1784C140.452 37.2574 140.304 37.3561 140.166 37.4746C140.007 37.5733 139.889 37.6424 139.809 37.6819Z" fill="#F7F6F2"/>
<path d="M16.5605 40.6246C20.5363 33.9904 24.7297 27.4945 29.1406 21.1367C29.2791 20.9393 29.3681 20.7912 29.4076 20.6925C29.467 20.574 29.4867 20.495 29.467 20.4556C29.467 20.3963 29.4472 20.347 29.4076 20.3075C29.3681 20.268 29.3384 20.2087 29.3186 20.1298C29.2988 20.031 29.3087 19.883 29.3483 19.6855C29.8428 18.0665 30.7922 16.8028 32.1966 15.8946C32.4735 15.7169 32.7208 15.6971 32.9383 15.8353C33.1757 15.9538 33.3636 16.1315 33.5021 16.3684C33.6208 16.6054 33.5416 17.02 33.2647 17.6123C32.9878 18.2047 32.6416 18.8266 32.2263 19.4782C31.8307 20.1298 31.5043 20.6431 31.2472 21.0183C31.1483 21.1565 31.079 21.2651 31.0395 21.3441C29.8725 23.0618 28.7153 24.7697 27.5681 26.4678C24.4824 30.9498 21.4561 35.491 18.4891 40.0915C18.3506 40.2889 18.2319 40.4568 18.133 40.595C17.955 40.8517 17.8858 40.9899 17.9254 41.0096C17.9649 41.0491 18.1627 40.98 18.5188 40.8023C18.5979 40.7628 18.6869 40.7233 18.7858 40.6838C22.2671 39.1833 26.0055 37.4556 30.001 35.5009C33.9966 33.5462 37.8438 31.4236 41.5426 29.1333C45.2613 26.8429 48.4261 24.4341 51.037 21.9068C52.5205 20.4259 53.737 18.8266 54.6864 17.1089C55.6359 15.3713 56.1402 13.7128 56.1996 12.1332C56.2589 10.5537 55.6853 9.24065 54.4787 8.19419C53.2721 7.12799 51.2447 6.51591 48.3964 6.35795C44.6975 6.29872 40.0492 7.07863 34.4515 8.69768C28.8538 10.3167 23.4637 12.4195 18.2814 15.0061C13.099 17.5729 9.30129 20.2581 6.88814 23.0618C6.17606 23.8911 5.78046 24.7105 5.70134 25.52C5.642 26.3098 6.12661 27.0206 7.15516 27.6524C7.39252 27.7907 7.57054 27.8203 7.68922 27.7413C7.8079 27.6623 7.89691 27.5537 7.95625 27.4155C8.01559 27.3168 8.07493 27.2378 8.13427 27.1786C8.19361 27.0996 8.27273 27.07 8.37163 27.0897C8.47053 27.0897 8.5991 27.149 8.75734 27.2674C9.17272 27.6228 9.41008 28.0375 9.46942 28.5113C9.54854 28.9655 9.46942 29.3406 9.23206 29.6368C8.9947 29.9329 8.61888 30.0119 8.1046 29.8737C5.98815 29.1234 4.71234 28.0769 4.27718 26.7343C3.8618 25.3719 4.36619 23.8023 5.79035 22.0252C8.32218 19.1031 12.2287 16.3092 17.51 13.6437C22.811 10.9782 28.3197 8.81615 34.0361 7.1576C39.7723 5.47932 44.5789 4.67966 48.4557 4.75864C51.6996 4.9166 54.0436 5.61753 55.4875 6.86144C56.9512 8.0856 57.693 9.62567 57.7127 11.4817C57.7325 13.3179 57.2281 15.243 56.1996 17.2569C55.171 19.2709 53.7963 21.1466 52.0755 22.8841C49.2865 25.6089 45.9536 28.1855 42.0767 30.6141C38.1998 33.0427 34.1647 35.2541 29.9714 37.2483C25.778 39.2425 21.8121 40.9603 18.0737 42.4016C17.6188 42.5793 17.2726 42.7274 17.0353 42.8459C16.7979 42.9841 16.6001 43.1519 16.4419 43.3494C16.2836 43.5468 16.1056 43.8232 15.9078 44.1786C15.8287 44.2971 15.7496 44.4254 15.6704 44.5636C15.2748 45.2152 14.8693 45.8767 14.454 46.548C12.9507 48.8976 11.5661 51.2965 10.3002 53.7449C9.96392 54.3174 9.65733 54.5445 9.38041 54.426C9.10349 54.3076 9.0936 53.9423 9.35074 53.3302C10.8738 50.3488 12.4958 47.4167 14.2166 44.534C14.4342 44.1589 14.543 43.9318 14.543 43.8528C14.543 43.7739 14.3749 43.8035 14.0386 43.9417C10.0628 45.4028 6.01782 46.6269 1.90358 47.6142C1.54755 47.6734 1.29041 47.6438 1.13217 47.5253C0.993706 47.4266 0.964036 47.2884 1.04316 47.1107C1.14206 46.933 1.35964 46.8046 1.6959 46.7257C3.79257 46.2123 5.87936 45.5904 7.95625 44.8598C10.0529 44.1293 12.1002 43.3691 14.0979 42.5793C14.3353 42.4806 14.543 42.4016 14.721 42.3424C15.0375 42.2239 15.2748 42.1252 15.4331 42.0462C15.6111 41.9672 15.7594 41.8389 15.8781 41.6612C15.9968 41.5032 16.1649 41.2564 16.3825 40.9208C16.4221 40.8221 16.4814 40.7233 16.5605 40.6246Z" stroke="#08090D" stroke-width="0.25"/>
<path d="M54.0633 25.6385C54.5974 25.678 54.8447 25.8458 54.8051 26.142C54.7655 26.4184 54.5677 26.7047 54.2117 27.0009C53.8754 27.2773 53.5095 27.4649 53.1139 27.5636C52.7381 27.6426 52.4612 27.5142 52.2831 27.1786C52.2436 27.0798 52.2535 26.991 52.3128 26.912C52.3919 26.8133 52.4908 26.7343 52.6095 26.6751C52.748 26.5961 52.8667 26.527 52.9656 26.4678C53.0447 26.448 53.104 26.4283 53.1436 26.4085C53.1831 26.3888 53.2029 26.369 53.2029 26.3493C53.2227 26.1321 53.3117 25.9544 53.4699 25.8162C53.6282 25.678 53.826 25.6188 54.0633 25.6385ZM47.4469 39.7065C46.6755 39.7065 46.2206 39.4597 46.0821 38.9661C45.9437 38.4724 46.0129 37.8505 46.2898 37.1002C46.547 36.3302 46.9129 35.5305 47.3876 34.7012C47.8623 33.8522 48.337 33.0822 48.8118 32.3911C49.2865 31.6803 49.6623 31.1374 49.9392 30.7622C50.0183 30.624 50.0876 30.5253 50.1469 30.466C50.0282 30.1501 50.137 29.8046 50.4733 29.4294C50.8095 29.0346 51.2051 28.7483 51.6601 28.5706C52.115 28.3731 52.4414 28.4027 52.6392 28.6594C52.7776 28.8766 52.8073 29.0839 52.7282 29.2814C52.6491 29.4788 52.5403 29.6664 52.4018 29.8441C52.3623 29.8836 52.3227 29.9329 52.2831 29.9922C51.5315 31.0584 50.7106 32.2529 49.8205 33.5758C48.9502 34.8789 48.2975 35.9748 47.8623 36.8633C47.5261 37.6333 47.7338 38.0578 48.4854 38.1368C49.2568 38.2158 50.2458 38.0973 51.4524 37.7814C52.6787 37.4655 53.7963 37.1298 54.8051 36.7744C55.8337 36.3993 56.4468 36.1525 56.6446 36.034C56.8622 35.9155 57.0303 35.8958 57.149 35.9748C57.2875 36.0537 57.3468 36.1821 57.327 36.3598C57.3073 36.5177 57.1688 36.6856 56.9117 36.8633C55.626 37.5741 53.9447 38.2256 51.8678 38.818C49.8107 39.4103 48.337 39.7065 47.4469 39.7065Z" stroke="#08090D" stroke-width="0.25"/>
<path d="M44.4206 56.6473C44.203 56.5486 44.114 56.3413 44.1536 56.0253C44.1734 55.7094 44.3909 55.1763 44.8063 54.426C45.2019 53.6757 45.8448 52.5799 46.7349 51.1386C47.6052 49.6972 48.7722 47.7919 50.2359 45.4225C51.8974 42.7768 54.0139 39.3807 56.5853 35.2343C57.2578 33.9707 58.6325 31.6013 60.7094 28.1263C62.7863 24.6315 65.1006 20.8603 67.6522 16.8127C70.2038 12.7453 72.5279 9.21104 74.6246 6.20987C76.7411 3.18895 78.185 1.50079 78.9564 1.14539C80.163 0.78999 80.7564 1.08616 80.7366 2.0339C80.7366 2.96189 80.4004 4.16631 79.7279 5.64715C79.0751 7.10824 78.3729 8.49036 77.6213 9.7935C76.8894 11.0769 76.4048 11.9062 76.1675 12.2813C76.1477 12.3011 76.1378 12.3208 76.1378 12.3405C73.4279 16.7041 70.4313 21.0874 67.1478 25.4904C63.8841 29.8934 61.372 32.8453 59.6116 34.3458C59.2754 34.5828 59.0479 34.7309 58.9292 34.7901C58.8303 34.8493 58.7413 34.9086 58.6622 34.9678C58.6028 35.027 58.5237 35.1257 58.4248 35.264C58.3259 35.4022 58.1875 35.6194 58.0094 35.9155L46.2305 55.0776C46.2898 55.0776 46.2799 55.1763 46.2008 55.3738C46.1019 55.591 45.9635 55.818 45.7854 56.055C45.6074 56.3116 45.3997 56.4992 45.1624 56.6177C44.9052 56.7559 44.658 56.7658 44.4206 56.6473ZM61.3918 30.466C61.1149 30.9004 60.9764 31.1472 60.9764 31.2065C60.9962 31.2657 61.1841 31.0781 61.5402 30.6437C63.4984 28.1559 65.6841 25.1646 68.0972 21.6698C70.5104 18.1751 72.7356 14.7889 74.773 11.5113C77.2059 7.48339 78.6103 4.88698 78.9861 3.72205C79.3817 2.55713 78.8773 2.89278 77.4729 4.72903C75.4949 7.45377 73.5466 10.3661 71.628 13.466C69.7093 16.5659 67.8302 19.6855 65.9907 22.8249C64.428 25.4707 62.8951 28.0177 61.3918 30.466Z" stroke="#08090D" stroke-width="0.25"/>
<path d="M81.1817 30.4364C81.3795 30.3772 81.6267 30.3772 81.9234 30.4364C82.2201 30.4957 82.4575 30.6141 82.6355 30.7918C82.8135 30.9695 82.8333 31.1867 82.6948 31.4434C82.1806 32.6676 81.5773 33.8621 80.885 35.027C80.8059 35.1455 80.7366 35.264 80.6773 35.3824C80.2619 36.113 79.8564 36.8435 79.4608 37.5741C78.8081 38.7587 78.1158 39.9533 77.3839 41.1577C77.1466 41.5329 76.9883 41.8093 76.9092 41.987C76.8301 42.1844 76.8004 42.3325 76.8202 42.4312C76.84 42.53 76.8993 42.6385 76.9982 42.757C77.018 42.7768 77.0378 42.7965 77.0576 42.8162C77.1762 42.9742 77.2158 43.142 77.1762 43.3197C77.1565 43.4974 77.0773 43.6455 76.9389 43.764C76.2861 44.2379 75.7224 44.7117 75.2477 45.1856C74.773 45.6792 74.318 46.2617 73.8829 46.933C73.4081 47.7228 72.8049 48.7199 72.073 49.9243C70.4115 52.7083 68.5917 55.6107 66.6137 58.6316C64.6555 61.6723 63.1423 63.6369 62.0742 64.5254C61.3226 65.019 60.7391 65.1276 60.3237 64.8512C59.8885 64.5945 59.7501 64.0318 59.9083 63.163C60.2841 61.6624 60.9369 60.0927 61.8665 58.4539C62.7764 56.8151 63.716 55.3935 64.6852 54.1891C66.6632 51.6618 68.7994 49.2727 71.0939 47.0218C71.8653 46.2715 72.5279 45.5706 73.0818 44.919C73.6356 44.2872 74.1993 43.5172 74.773 42.6089L79.1345 35.6194C79.4905 35.0863 79.8169 34.5433 80.1136 33.9904C80.3311 33.5955 80.4201 33.3487 80.3806 33.25C80.3608 33.1316 80.2619 33.1217 80.0839 33.2204C79.9059 33.2994 79.6982 33.4277 79.4608 33.6054C79.2432 33.7831 79.0356 33.9608 78.8378 34.1385C78.7191 34.2372 78.6202 34.3162 78.541 34.3755C78.0268 34.7703 77.2158 35.4417 76.1081 36.3894C74.7433 37.5543 73.1906 38.8476 71.4499 40.2692C69.7093 41.6908 68.0774 42.8952 66.5544 43.8825C65.0313 44.8894 63.9237 45.3732 63.2314 45.3337C62.4006 45.3337 61.8962 45.0671 61.7182 44.534C61.5204 44.0207 61.4907 43.4185 61.6292 42.7274C62.0446 40.6542 63.1127 38.4231 64.8335 36.034C66.5544 33.6252 68.5719 31.5915 70.8862 29.9329C73.2005 28.2744 75.4653 27.5142 77.6806 27.6524C78.274 27.7314 78.6993 27.9486 78.9564 28.304C79.2136 28.6594 79.263 29.0247 79.1048 29.3998C78.9663 29.775 78.5806 30.0119 77.9476 30.1106C77.7499 30.1501 77.6114 30.1403 77.5323 30.081C77.4532 30.0218 77.3839 29.9428 77.3246 29.8441C77.285 29.7454 77.2158 29.6565 77.1169 29.5775C77.0378 29.4788 76.8993 29.4097 76.7015 29.3702C76.5235 29.3307 76.2466 29.3505 75.8708 29.4294C74.1301 29.7651 72.34 30.6734 70.5005 32.1542C68.661 33.6153 67.0489 35.3133 65.6643 37.2483C64.2797 39.1635 63.4193 40.9701 63.083 42.6682C62.9643 43.3592 63.0731 43.7245 63.4094 43.764C63.7456 43.8035 64.1808 43.6653 64.7149 43.3494C65.2291 43.0334 65.7137 42.6978 66.1687 42.3424C66.6236 41.987 66.9203 41.7402 67.0588 41.602C70.5203 38.6403 74.0609 35.7773 77.6806 33.0131C78.8279 32.1246 79.9949 31.2657 81.1817 30.4364ZM61.4808 63.3407C61.8369 63.2025 62.3413 62.6595 62.994 61.7118C63.6467 60.7838 64.3193 59.7373 65.0116 58.5724C65.6841 57.4075 66.2478 56.4104 66.7027 55.5811C66.9994 55.048 67.1972 54.7025 67.2961 54.5445C67.3357 54.4853 67.395 54.3964 67.4742 54.278C67.6324 54.041 67.8203 53.7449 68.0379 53.3895C68.2555 53.0538 68.4236 52.728 68.5423 52.4121C68.6807 52.1159 68.7005 51.9284 68.6016 51.8494C68.4236 51.7704 68.028 52.1061 67.4148 52.8563C66.8214 53.6264 66.1291 54.6037 65.3379 55.7884C64.5665 56.9731 63.8346 58.1479 63.1423 59.3128C62.45 60.4975 61.9358 61.4748 61.5995 62.2449C61.2633 63.0149 61.2237 63.3802 61.4808 63.3407Z" stroke="#08090D" stroke-width="0.25"/>
<path d="M86.2552 26.7047C85.7014 26.0334 85.3849 25.3818 85.3058 24.75C85.2662 23.8023 85.553 23.1309 86.1662 22.736C86.7794 22.3412 87.5113 22.4695 88.3618 23.1211C88.6783 23.4765 88.8761 23.9207 88.9552 24.4538C89.0541 24.9869 88.9651 25.599 88.6882 26.2901C88.5695 26.527 88.52 26.7146 88.5398 26.8528C88.5794 26.9713 88.7277 27.0897 88.9849 27.2082C90.5475 27.8992 91.6255 28.6989 92.2189 29.6071C92.8123 30.5154 92.5453 31.7099 91.4178 33.1908C90.8244 33.9608 90.2607 34.9086 89.7266 36.034C89.1926 37.1397 89.0244 38.117 89.2222 38.9661C89.4596 39.5189 90.0827 39.6472 91.0914 39.3511C92.12 39.0747 93.2475 38.5909 94.4738 37.8999C95.7002 37.2088 96.7584 36.5375 97.6485 35.8859C97.9254 35.649 98.143 35.5404 98.3012 35.5601C98.4595 35.5601 98.5386 35.6391 98.5386 35.7971C98.5584 35.955 98.4793 36.1228 98.3012 36.3005C95.6705 38.6107 93.3068 40.0027 91.2101 40.4765C89.1134 40.9504 87.8574 40.5061 87.442 39.1438C87.0267 37.7814 88.0157 35.5108 90.409 32.3319C91.0815 31.4039 91.1804 30.6536 90.7057 30.081C90.231 29.4887 89.509 28.926 88.5398 28.3929C88.5003 28.3731 88.4706 28.3534 88.4508 28.3336C88.253 28.1954 88.075 28.1461 87.9168 28.1855C87.7783 28.2053 87.5904 28.383 87.353 28.7186C87.1157 29.0346 86.9376 29.2616 86.819 29.3998C86.5025 29.7947 86.2256 30.0119 85.9882 30.0514C85.7508 30.0711 85.5728 29.9922 85.4542 29.8145C85.3553 29.6368 85.3256 29.4393 85.3651 29.2221C85.4245 29.0247 85.5234 28.9161 85.6618 28.8963C85.8003 28.8766 86.0871 28.6199 86.5223 28.1263C86.7201 27.8499 86.7695 27.6031 86.6706 27.3859C86.5915 27.149 86.453 26.9219 86.2552 26.7047ZM87.6794 25.5496C87.7585 25.056 87.7091 24.6217 87.531 24.2465C87.353 23.8714 87.1552 23.6838 86.9376 23.6838C86.7201 23.664 86.6212 23.9701 86.6409 24.6019C86.6607 24.7006 86.7201 24.8685 86.819 25.1054C86.9179 25.3226 87.0267 25.5299 87.1453 25.7273C87.2838 25.9248 87.4124 26.0235 87.531 26.0235C87.5706 26.0235 87.5904 26.0038 87.5904 25.9643C87.6102 25.905 87.6201 25.8458 87.6201 25.7866C87.6398 25.7076 87.6596 25.6286 87.6794 25.5496Z" stroke="#08090D" stroke-width="0.25"/>
<path d="M104.799 25.6385C105.333 25.678 105.58 25.8458 105.541 26.142C105.501 26.4184 105.303 26.7047 104.947 27.0009C104.611 27.2773 104.245 27.4649 103.85 27.5636C103.474 27.6426 103.197 27.5142 103.019 27.1786C102.979 27.0798 102.989 26.991 103.048 26.912C103.128 26.8133 103.226 26.7343 103.345 26.6751C103.484 26.5961 103.602 26.527 103.701 26.4678C103.78 26.448 103.84 26.4283 103.879 26.4085C103.919 26.3888 103.939 26.369 103.939 26.3493C103.958 26.1321 104.047 25.9544 104.206 25.8162C104.364 25.678 104.562 25.6188 104.799 25.6385ZM98.1826 39.7065C97.4111 39.7065 96.9562 39.4597 96.8177 38.9661C96.6793 38.4724 96.7485 37.8505 97.0254 37.1002C97.2826 36.3302 97.6485 35.5305 98.1232 34.7012C98.5979 33.8522 99.0727 33.0822 99.5474 32.3911C100.022 31.6803 100.398 31.1374 100.675 30.7622C100.754 30.624 100.823 30.5253 100.883 30.466C100.764 30.1501 100.873 29.8046 101.209 29.4294C101.545 29.0346 101.941 28.7483 102.396 28.5706C102.851 28.3731 103.177 28.4027 103.375 28.6594C103.513 28.8766 103.543 29.0839 103.464 29.2814C103.385 29.4788 103.276 29.6664 103.137 29.8441C103.098 29.8836 103.058 29.9329 103.019 29.9922C102.267 31.0584 101.446 32.2529 100.556 33.5758C99.6858 34.8789 99.0331 35.9748 98.5979 36.8633C98.2617 37.6333 98.4694 38.0578 99.221 38.1368C99.9924 38.2158 100.981 38.0973 102.188 37.7814C103.414 37.4655 104.532 37.1298 105.541 36.7744C106.569 36.3993 107.182 36.1525 107.38 36.034C107.598 35.9155 107.766 35.8958 107.885 35.9748C108.023 36.0537 108.082 36.1821 108.063 36.3598C108.043 36.5177 107.904 36.6856 107.647 36.8633C106.362 37.5741 104.68 38.2256 102.603 38.818C100.546 39.4103 99.0727 39.7065 98.1826 39.7065Z" stroke="#08090D" stroke-width="0.25"/>
<path d="M118.358 37.9295C118.516 37.9492 118.803 37.7616 119.219 37.3668C119.654 36.9521 120.158 36.4388 120.732 35.8267C121.681 34.8 122.66 33.8325 123.669 32.9242C124.698 32.016 125.558 31.552 126.25 31.5322C126.903 31.631 127.269 32.0061 127.348 32.6577C127.447 33.2895 127.457 33.9904 127.378 34.7605C127.318 35.2541 127.289 35.7082 127.289 36.1228C127.309 36.5177 127.407 36.804 127.585 36.9817C127.922 37.3174 129.207 36.8238 131.443 35.5009C131.719 35.3429 131.937 35.2936 132.095 35.3528C132.273 35.412 132.343 35.5305 132.303 35.7082C132.283 35.8859 132.105 36.0735 131.769 36.2709C130.305 37.1792 129.178 37.7616 128.387 38.0183C127.595 38.2553 126.982 38.1763 126.547 37.7814C125.815 37.0706 125.548 35.8168 125.746 34.0201C125.766 33.6054 125.716 33.408 125.598 33.4277C125.499 33.4277 125.271 33.5758 124.915 33.872C124.876 33.9115 124.836 33.9411 124.796 33.9608C124.203 34.4544 123.531 35.0665 122.779 35.7971C121.849 36.7053 120.949 37.505 120.079 38.196C119.228 38.8673 118.546 39.124 118.032 38.9661C117.339 38.6699 116.983 38.1072 116.964 37.2779C116.944 36.4486 117.092 35.5503 117.409 34.5828C117.745 33.5955 118.081 32.7169 118.417 31.9469C118.576 31.552 118.704 31.2262 118.803 30.9695C118.942 30.4759 118.704 30.4167 118.091 30.7918C117.478 31.167 116.677 31.7692 115.688 32.5984C114.699 33.408 113.71 34.257 112.721 35.1455C111.752 36.0143 110.97 36.7152 110.377 37.2483C110.041 37.5445 109.833 37.7419 109.754 37.8406C109.655 37.9196 109.507 38.0381 109.309 38.196C108.933 38.5514 108.458 38.9661 107.885 39.4399C107.311 39.9335 106.757 40.3482 106.223 40.6838C105.689 41.0195 105.284 41.138 105.007 41.0392C104.413 40.7233 104.344 40.1014 104.799 39.1734C105.986 36.7645 107.351 34.5137 108.893 32.4207C109.685 31.2953 110.446 30.16 111.178 29.0148C111.198 28.9753 111.208 28.9457 111.208 28.926C111.208 28.9062 111.188 28.8766 111.148 28.8371C111.148 28.8371 111.138 28.8272 111.119 28.8075C110.98 28.6693 110.931 28.5212 110.97 28.3632C111.01 28.2053 111.109 28.0375 111.267 27.8598C111.366 27.761 111.544 27.6228 111.801 27.4451C112.078 27.2674 112.355 27.149 112.632 27.0897C112.909 27.0107 113.107 27.07 113.225 27.2674C113.344 27.4649 113.294 27.8795 113.077 28.5113C111.851 30.703 110.456 32.9144 108.893 35.1455C108.537 35.6786 108.191 36.2018 107.855 36.7152C107.38 37.426 107.202 37.7616 107.321 37.7222C107.44 37.6827 107.756 37.4359 108.27 36.9817C108.409 36.8633 108.547 36.7448 108.686 36.6263C110.011 35.4614 111.396 34.2866 112.84 33.1019C114.303 31.8975 115.638 30.9202 116.845 30.1699C118.052 29.3998 118.952 29.0938 119.545 29.2517C120.356 29.6269 120.504 30.5746 119.99 32.095C119.95 32.1937 119.881 32.3714 119.782 32.6281C119.604 33.1612 119.367 33.8325 119.07 34.642C118.793 35.4515 118.566 36.192 118.388 36.8633C118.23 37.5148 118.22 37.8702 118.358 37.9295Z" stroke="#08090D" stroke-width="0.25"/>
<path d="M139.809 37.6819C139.493 37.7609 139.246 37.7016 139.068 37.5042C138.909 37.3265 138.82 37.0895 138.801 36.7934C138.781 36.5169 138.82 36.2603 138.919 36.0233C139.157 35.6087 139.483 35.4211 139.898 35.4606C140.334 35.5199 140.67 35.737 140.907 36.1122C141.006 36.3096 141.026 36.5071 140.967 36.7045C140.907 36.902 140.789 37.0599 140.611 37.1784C140.452 37.2574 140.304 37.3561 140.166 37.4746C140.007 37.5733 139.889 37.6424 139.809 37.6819Z" stroke="#08090D" stroke-width="0.25"/>
</svg>
